<svg width="9" height="14" viewBox="0 0 9 14" fill="none" xmlns="http://www.w3.org/2000/svg">
<path d="M6.3 2.53125V8.85938H2.7V2.53125H6.3ZM7.65 0H1.35C0.604688 0 0 0.566895 0 1.26562V12.2344C0 12.9331 0.604688 13.5 1.35 13.5H7.65C8.39531 13.5 9 12.9331 9 12.2344V1.26562C9 0.566895 8.39531 0 7.65 0ZM1.35 12.6562C1.1025 12.6562 0.9 12.4664 0.9 12.2344V1.26562C0.9 1.03359 1.1025 0.84375 1.35 0.84375H7.65C7.8975 0.84375 8.1 1.03359 8.1 1.26562V12.2344C8.1 12.4664 7.8975 12.6562 7.65 12.6562H1.35ZM6.8625 1.6875H2.1375C1.95187 1.6875 1.8 1.82988 1.8 2.00391V9.38672C1.8 9.56074 1.95187 9.70312 2.1375 9.70312H6.8625C7.04812 9.70312 7.2 9.56074 7.2 9.38672V2.00391C7.2 1.82988 7.04812 1.6875 6.8625 1.6875ZM5.5125 10.9688H3.4875C3.30187 10.9688 3.15 11.1111 3.15 11.2852V11.4961C3.15 11.6701 3.30187 11.8125 3.4875 11.8125H5.5125C5.69812 11.8125 5.85 11.6701 5.85 11.4961V11.2852C5.85 11.1111 5.69812 10.9688 5.5125 10.9688Z" fill="#FCFCFC"/>
</svg>
